<svg xmlns="http://www.w3.org/2000/svg" viewBox="0 0 1200 900" fill="none">
<defs>
  <linearGradient id="bg" x1="0" y1="0" x2="1200" y2="900"><stop stop-color="#162033"/><stop offset="1" stop-color="#2D4267"/></linearGradient>
  <linearGradient id="warm" x1="0" y1="0" x2="1" y2="1"><stop stop-color="#FF7A3D"/><stop offset="1" stop-color="#FFB26B"/></linearGradient>
  <style>.t{font-family:Inter,Arial,sans-serif;fill:#fff}.m{font-family:Inter,Arial,sans-serif;fill:rgba(255,255,255,.74)}.d{font-family:Inter,Arial,sans-serif;fill:#162033}</style>
</defs>
<rect width="1200" height="900" rx="42" fill="url(#bg)"/>
<text x="78" y="120" class="t" font-size="28" font-weight="800">Mobil, ami nem végtelen szövegfal</text>
<text x="78" y="158" class="m" font-size="20" font-weight="600">Kártyák, alsó navigáció, rövid blokkok, fix CTA.</text>
<rect x="96" y="210" width="390" height="590" rx="52" fill="#0F1726" stroke="#31486C" stroke-width="8"/>
<rect x="124" y="250" width="334" height="124" rx="28" fill="#F5F8FF"/>
<rect x="148" y="274" width="160" height="14" rx="7" fill="#162033" opacity="0.16"/>
<rect x="148" y="306" width="220" height="18" rx="9" fill="#162033" opacity="0.10"/>
<rect x="148" y="336" width="130" height="44" rx="16" fill="url(#warm)"/>
<rect x="124" y="396" width="334" height="120" rx="28" fill="#fff3ec"/>
<circle cx="168" cy="454" r="18" fill="#FF7A3D"/>
<rect x="198" y="442" width="196" height="14" rx="7" fill="#162033" opacity="0.16"/>
<rect x="198" y="470" width="146" height="14" rx="7" fill="#162033" opacity="0.10"/>
<rect x="124" y="538" width="334" height="120" rx="28" fill="#F5F8FF"/>
<circle cx="168" cy="596" r="18" fill="#162033"/>
<rect x="198" y="584" width="214" height="14" rx="7" fill="#162033" opacity="0.16"/>
<rect x="198" y="612" width="154" height="14" rx="7" fill="#162033" opacity="0.10"/>
<rect x="136" y="704" width="310" height="70" rx="26" fill="#fff"/>
<rect x="156" y="720" width="62" height="38" rx="16" fill="#FFF3EC"/>
<rect x="232" y="720" width="62" height="38" rx="16" fill="#F5F8FF"/>
<rect x="308" y="720" width="62" height="38" rx="16" fill="#F5F8FF"/>
<rect x="384" y="720" width="42" height="38" rx="16" fill="#FF7A3D"/>

<g transform="translate(590 240)">
<rect width="520" height="136" rx="30" fill="#fff"/>
<circle cx="60" cy="68" r="28" fill="url(#warm)"/>
<text x="112" y="61" class="d" font-size="28" font-weight="800">Rövid blokkok</text>
<text x="112" y="95" class="d" opacity="0.62" font-size="18" font-weight="700">Egy képernyő = egy fő gondolat</text>
</g>
<g transform="translate(590 410)">
<rect width="520" height="136" rx="30" fill="#fff"/>
<circle cx="60" cy="68" r="28" fill="#162033"/>
<text x="112" y="61" class="d" font-size="28" font-weight="800">Alsó navigáció</text>
<text x="112" y="95" class="d" opacity="0.62" font-size="18" font-weight="700">Hüvelykujjal is könnyen elérhető</text>
</g>
<g transform="translate(590 580)">
<rect width="520" height="136" rx="30" fill="#fff"/>
<circle cx="60" cy="68" r="28" fill="url(#warm)"/>
<text x="112" y="61" class="d" font-size="28" font-weight="800">Fix következő lépés</text>
<text x="112" y="95" class="d" opacity="0.62" font-size="18" font-weight="700">A CTA mindig szem előtt marad</text>
</g>
</svg>